<svg xmlns="http://www.w3.org/2000/svg" width="17.056" height="15.984" viewBox="0 0 17.056 15.984"><path d="M17.01,9.826v6.165H13.4V10.236c0-1.447-.52-2.43-1.82-2.43A1.969,1.969,0,0,0,9.73,9.113a2.325,2.325,0,0,0-.13.872v6H6S6.04,6.242,6,5.233H9.6V6.757a.072.072,0,0,1-.02.037H9.6V6.757a3.6,3.6,0,0,1,3.26-1.776C15.23,4.986,17.01,6.522,17.01,9.826ZM1.99.009a1.99,1.99,0,1,1,.05,3.978H2.02A1.99,1.99,0,1,1,1.99.009ZM4.02,15.99H-.01v-11H4.02Z" transform="translate(0.046 -0.007)" fill="#333" fill-rule="evenodd"/></svg>