<?xml version="1.0" encoding="utf-8"?>
<!-- Generator: Adobe Illustrator 24.0.1, SVG Export Plug-In . SVG Version: 6.00 Build 0)  -->
<svg version="1.1" id="Layer_1" xmlns="http://www.w3.org/2000/svg" xmlns:xlink="http://www.w3.org/1999/xlink" x="0px" y="0px"
	 viewBox="0 0 151.8 151.8" enable-background="new 0 0 151.8 151.8" xml:space="preserve">
<g transform="translate(0 0)">
	<path fill="#EC2050" d="M128.4,22.8c18.1,18.2,18.1,47.5,0,65.7l-19.2,19.2c-0.7,0.7-1.7,0.7-2.4,0c-0.7-0.7-0.7-1.7,0-2.4
		L126,86.2c16.8-16.8,16.8-44.1,0-61s-44.1-16.8-61,0L46.6,43.7c-0.7,0.7-1.7,0.7-2.4,0c-0.7-0.7-0.7-1.7,0-2.4l18.5-18.5
		C80.8,4.7,110.2,4.7,128.4,22.8z"/>
	<path fill="#EC2050" d="M56.2,95c3.3,3.4,3.3,8.8,0,12.1c-3,3-12,3.4-13.8,3.4c-0.9,0-1.7-0.8-1.7-1.7c0-1.8,0.4-10.8,3.4-13.8
		C47.4,91.7,52.8,91.7,56.2,95z M44.1,107.1c3.7-0.2,8.4-1,9.7-2.3c2-2,2-5.3,0-7.4c-2-2-5.3-2-7.4,0
		C45.1,98.7,44.3,103.4,44.1,107.1L44.1,107.1z"/>
	<path fill="#EC2050" d="M138.6,95.4c0.7,0.7,0.7,1.7,0,2.4c0,0,0,0,0,0L127,109.4c-0.7,0.7-1.7,0.7-2.4,0c-0.7-0.7-0.7-1.7,0-2.4
		l11.6-11.6C136.9,94.8,138,94.8,138.6,95.4L138.6,95.4z"/>
	<path fill="#EC2050" d="M55.8,12.6c0.7,0.7,0.7,1.7,0,2.4c0,0,0,0,0,0L24.7,46c-0.7,0.7-1.7,0.7-2.4,0c-0.7-0.7-0.7-1.7,0-2.4
		l31.1-31.1C54.1,11.9,55.1,11.9,55.8,12.6C55.8,12.6,55.8,12.6,55.8,12.6z"/>
	<path fill="#EC2050" d="M103.1,111.4c0.7,0.7,0.7,1.7,0,2.4c0,0,0,0,0,0l-5.2,5.2c-0.7,0.7-1.7,0.7-2.4,0c-0.7-0.7-0.7-1.7,0-2.4
		l5.2-5.2C101.4,110.8,102.5,110.8,103.1,111.4L103.1,111.4z"/>
	<path fill="#EC2050" d="M92.7,121.9c0.7,0.7,0.7,1.7,0,2.4c0,0,0,0,0,0l-17.3,17.3c-0.7,0.7-1.7,0.7-2.4,0c-0.7-0.7-0.7-1.7,0-2.4
		l17.3-17.3C91,121.2,92,121.2,92.7,121.9L92.7,121.9z"/>
	<path fill="#EC2050" d="M40.5,48.8c0.7,0.7,0.7,1.7,0,2.4L21.9,69.7c-0.7,0.7-1.7,0.7-2.4,0s-0.7-1.7,0-2.4l18.5-18.5
		C38.7,48.1,39.8,48.1,40.5,48.8C40.5,48.8,40.5,48.8,40.5,48.8z"/>
	<path fill="#EC2050" d="M17.9,71.3c0.7,0.7,0.7,1.7,0,2.4c0,0,0,0,0,0l-5.2,5.2c-0.7,0.7-1.7,0.7-2.4,0s-0.7-1.7,0-2.4l5.2-5.2
		C16.2,70.6,17.3,70.6,17.9,71.3L17.9,71.3z"/>
	<path fill="#EC2050" d="M121.5,112.6c0.7,0.7,0.7,1.7,0,2.4c0,0,0,0,0,0l-27.1,27.1c-0.7,0.7-1.7,0.7-2.4,0c-0.7-0.7-0.7-1.7,0-2.4
		l27.1-27.1C119.7,112,120.8,112,121.5,112.6C121.5,112.6,121.5,112.6,121.5,112.6z"/>
	<path fill="#EC2050" d="M20,48.4c0.7,0.7,0.7,1.7,0,2.4c0,0,0,0,0,0l-6.7,6.7c-0.7,0.7-1.7,0.7-2.4,0c-0.7-0.7-0.7-1.7,0-2.4
		l6.7-6.7C18.2,47.7,19.3,47.7,20,48.4L20,48.4L20,48.4z"/>
	<path fill="#EC2050" d="M104.4,47.2c-5.1-5.1-13.5-5.1-18.6,0s-5.1,13.5,0,18.6c5.1,5.1,13.5,5.1,18.6,0
		C109.5,60.7,109.5,52.3,104.4,47.2C104.4,47.2,104.4,47.2,104.4,47.2z M88.9,62.7c-3.4-3.4-3.4-9,0-12.4c3.4-3.4,9-3.4,12.4,0
		c3.4,3.4,3.4,9,0,12.4l0,0C97.9,66.1,92.3,66.1,88.9,62.7z"/>
	<path fill="#010101" d="M98.3,86.6c0-1-0.1-2.1-0.2-3.1l0.1,0c20.9-10.7,32.5-33.7,28.6-56.9c-0.2-0.9-0.9-1.6-1.8-1.8
		c-23.2-3.9-46.2,7.7-56.9,28.6l0,0.1c-15.4-1.7-29.2,9.4-30.9,24.8c-0.1,1-0.2,2-0.2,3.1c0,0.6,0.2,1.1,0.6,1.6
		c0.2,0.2,0.4,0.3,0.6,0.4c0.7,0.4,1.6,0.3,2.3-0.2l9.4-7c0.9-0.7,2.1-0.6,2.9,0.2l4.7,4.7l-7.1,4.7c-1,0.7-1.3,2-0.6,3
		c0.1,0.1,0.2,0.2,0.3,0.3l12.4,12.4c0.9,0.9,2.3,0.9,3.1,0c0.1-0.1,0.2-0.2,0.3-0.3l4.7-7.1l4.7,4.7c0.8,0.8,0.9,2,0.2,2.9l-7,9.4
		c-0.5,0.7-0.6,1.6-0.2,2.3c0.1,0.2,0.2,0.4,0.4,0.6c0.4,0.4,1,0.6,1.6,0.6C85.7,114.6,98.3,102.1,98.3,86.6z M122.6,28.9
		c0.9,6.6,0.4,13.3-1.3,19.7L103,30.2C109.4,28.5,116.1,28,122.6,28.9L122.6,28.9z M55.8,73.2c-2.3-2.3-6-2.6-8.6-0.6l-5.4,4
		c1.1-5.2,3.8-9.9,7.9-13.3l0,0c4.5-3.8,10.3-5.8,16.2-5.6l-8.7,16.9L55.8,73.2z M55,87.9l5.6-3.7l6.8,6.8l-3.7,5.6L55,87.9z
		 M60.5,77.8l10.8-21l0.7-1.4c5.6-10.8,14.9-19.3,26.3-23.6l21.5,21.5C115.4,64.6,107,74,96.2,79.6l-1.4,0.7l-21,10.8L60.5,77.8z
		 M75,109.7l4-5.4c2-2.6,1.7-6.3-0.6-8.6L77,94.4l16.9-8.7C94.3,97.2,86.3,107.4,75,109.7z"/>
	
		<rect x="70.9" y="63.3" transform="matrix(0.7071 -0.7071 0.7071 0.7071 -24.9597 70.9392)" fill="#EC2050" width="4.5" height="4.5"/>
	
		<rect x="77.3" y="69.8" transform="matrix(0.7071 -0.7071 0.7071 0.7071 -27.6226 77.3682)" fill="#EC2050" width="4.5" height="4.5"/>
	
		<rect x="83.5" y="76.3" transform="matrix(0.7071 -0.7071 0.7071 0.7071 -30.1755 83.5299)" fill="#EC2050" width="4.5" height="3.8"/>
</g>
</svg>
