<?xml version="1.0" encoding="utf-8"?>
<!-- Generator: Adobe Illustrator 24.0.1, SVG Export Plug-In . SVG Version: 6.00 Build 0)  -->
<svg version="1.1" id="Layer_1" xmlns="http://www.w3.org/2000/svg" xmlns:xlink="http://www.w3.org/1999/xlink" x="0px" y="0px"
	 viewBox="0 0 151.8 151.8" enable-background="new 0 0 151.8 151.8" xml:space="preserve">
<g>
	<path fill="#131313" d="M141.4,74.7c-13.7-21.9-37.5-35.4-63.3-36.1V21h-4.4v17.6c-25.8,0.6-49.6,14.2-63.3,36.1
		c-0.4,0.7-0.4,1.6,0,2.3c13.7,21.9,37.5,35.4,63.3,36.1v17.6h4.4v-17.6c25.8-0.6,49.6-14.2,63.3-36.1
		C141.9,76.4,141.9,75.5,141.4,74.7z M14.9,75.9c9-13.7,22.3-24,37.8-29.2c-8.3,6.6-13.4,16.4-14,27H21v4.4h17.7
		c0.6,10.6,5.7,20.4,14,27C37.2,99.9,23.8,89.6,14.9,75.9z M73.7,95.7v13.1c-16.4-1.1-29.5-14.2-30.6-30.6h13.1v-4.4H43.1
		c1.1-16.4,14.2-29.5,30.6-30.6v13.1h4.4V43.1c16.4,1.1,29.5,14.2,30.6,30.6H95.7v4.4h13.1c-1.1,16.4-14.2,29.5-30.6,30.6V95.7
		L73.7,95.7z M137,75.9c-9,13.7-22.3,24-37.8,29.2c8.3-6.6,13.4-16.4,14-27h17.7v-4.4h-17.7c-0.6-10.6-5.7-20.4-14-27
		C114.7,51.9,128,62.2,137,75.9L137,75.9z"/>
	<path fill="#EC2050" d="M75.9,60.5c-8.5,0-15.4,6.9-15.4,15.4c0,8.5,6.9,15.4,15.4,15.4c8.5,0,15.4-6.9,15.4-15.4l0,0
		C91.3,67.4,84.4,60.5,75.9,60.5z M75.9,86.9c-6.1,0-11-4.9-11-11c0-6.1,4.9-11,11-11c6.1,0,11,4.9,11,11C86.9,82,82,86.9,75.9,86.9
		L75.9,86.9z"/>
	<path fill="#EC2050" d="M23.2,21C22,21,21,22,21,23.2l0,0v17.6h4.4V25.4h15.4V21H23.2z"/>
	<path fill="#EC2050" d="M128.6,21H111v4.4h15.4v15.4h4.4V23.2C130.8,22,129.8,21,128.6,21z"/>
	<path fill="#EC2050" d="M126.4,111v15.4H111v4.4h17.6c1.2,0,2.2-1,2.2-2.2v0V111H126.4z"/>
	<path fill="#EC2050" d="M25.4,126.4V111H21v17.6c0,1.2,1,2.2,2.2,2.2c0,0,0,0,0,0h17.6v-4.4L25.4,126.4z"/>
</g>
</svg>
